<svg width="100" height="100" viewBox="0 0 100 100" fill="none" xmlns="http://www.w3.org/2000/svg">
<path d="M90.3516 12.383C89.4846 11.6484 88.4347 11.1623 87.3136 10.9766C86.1925 10.7909 85.042 10.9125 83.9844 11.3283L11.875 39.6486C10.6102 40.1305 9.53889 41.0148 8.826 42.1653C8.11311 43.3158 7.79817 44.6688 7.92969 46.0158C8.04702 47.3624 8.59772 48.6346 9.49919 49.6417C10.4007 50.6488 11.6043 51.3365 12.9297 51.6018L31.25 55.2346V78.1252C31.2493 79.3635 31.6166 80.5742 32.3051 81.6035C32.9936 82.6328 33.9724 83.4343 35.1172 83.9065C35.8749 84.2114 36.6833 84.3704 37.5 84.3752C38.3209 84.3781 39.1341 84.2172 39.892 83.902C40.6499 83.5867 41.3374 83.1234 41.9141 82.5393L52.0703 72.4221L67.4219 85.9377C68.5552 86.9372 70.0123 87.4923 71.5234 87.5002C72.188 87.5139 72.8495 87.408 73.4766 87.1877C74.5074 86.8615 75.4352 86.2719 76.1683 85.4772C76.9013 84.6825 77.4142 83.7102 77.6563 82.6565L92.3438 18.5158C92.6005 17.4091 92.5507 16.2532 92.1996 15.1727C91.8486 14.0921 91.2097 13.1276 90.3516 12.383V12.383ZM33.6328 49.3361L14.1797 45.469L68.7109 24.0236L33.6328 49.3361ZM37.5 78.1252V59.6096L47.3437 68.2815L37.5 78.1252ZM71.5625 81.2502L39.375 52.9299L85.7422 19.4533L71.5625 81.2502Z" fill="#323232"/>
</svg>
