<svg width="100" height="100" viewBox="0 0 100 100" fill="none" xmlns="http://www.w3.org/2000/svg">
<path d="M62.5 31.25C62.5 30.4212 62.8292 29.6263 63.4153 29.0403C64.0013 28.4542 64.7962 28.125 65.625 28.125H90.625C91.4538 28.125 92.2487 28.4542 92.8347 29.0403C93.4208 29.6263 93.75 30.4212 93.75 31.25C93.75 32.0788 93.4208 32.8737 92.8347 33.4597C92.2487 34.0458 91.4538 34.375 90.625 34.375H65.625C64.7962 34.375 64.0013 34.0458 63.4153 33.4597C62.8292 32.8737 62.5 32.0788 62.5 31.25ZM96.875 59.375C96.875 60.2038 96.5458 60.9987 95.9597 61.5847C95.3737 62.1708 94.5788 62.5 93.75 62.5H66.0156C66.7147 65.1809 68.2821 67.5548 70.4728 69.2509C72.6636 70.947 75.3544 71.8697 78.125 71.875C79.7671 71.883 81.3941 71.5622 82.9103 70.9316C84.4265 70.301 85.8011 69.3733 86.9531 68.2031C87.539 67.6187 88.3327 67.2905 89.1602 67.2905C89.9876 67.2905 90.7814 67.6187 91.3672 68.2031C91.6613 68.4905 91.895 68.8338 92.0545 69.2128C92.2141 69.5919 92.2963 69.9989 92.2963 70.4102C92.2963 70.8214 92.2141 71.2285 92.0545 71.6075C91.895 71.9865 91.6613 72.3298 91.3672 72.6172C89.6371 74.3697 87.5748 75.7596 85.301 76.7053C83.0272 77.651 80.5876 78.1337 78.125 78.125C74.4166 78.125 70.7915 77.0253 67.7081 74.965C64.6246 72.9048 62.2214 69.9764 60.8023 66.5503C59.3831 63.1242 59.0118 59.3542 59.7353 55.7171C60.4587 52.0799 62.2445 48.739 64.8667 46.1167C67.489 43.4945 70.8299 41.7087 74.4671 40.9853C78.1042 40.2618 81.8742 40.6331 85.3003 42.0523C88.7264 43.4714 91.6548 45.8746 93.7151 48.9581C95.7753 52.0415 96.875 55.6666 96.875 59.375V59.375ZM90.2344 56.25C89.5459 53.5612 87.9822 51.178 85.7897 49.4761C83.5971 47.7742 80.9005 46.8505 78.125 46.8505C75.3495 46.8505 72.6529 47.7742 70.4603 49.4761C68.2678 51.178 66.7041 53.5612 66.0156 56.25H90.2344ZM54.6875 61.7187C54.6875 66.07 52.959 70.2429 49.8822 73.3197C46.8055 76.3965 42.6325 78.125 38.2812 78.125H12.5C11.6712 78.125 10.8763 77.7958 10.2903 77.2097C9.70424 76.6237 9.375 75.8288 9.375 75V25C9.375 24.1712 9.70424 23.3763 10.2903 22.7903C10.8763 22.2042 11.6712 21.875 12.5 21.875H33.5938C36.456 21.879 39.256 22.7104 41.6566 24.2692C44.0571 25.8279 45.9559 28.0474 47.1241 30.6603C48.2923 33.2733 48.6801 36.1683 48.2409 38.9966C47.8016 41.8249 46.5541 44.4659 44.6484 46.6016C47.6234 47.8543 50.1626 49.9568 51.9484 52.6458C53.7341 55.3348 54.6869 58.4908 54.6875 61.7187V61.7187ZM15.625 45.3125H33.5938C35.873 45.3125 38.0588 44.4071 39.6704 42.7954C41.2821 41.1838 42.1875 38.998 42.1875 36.7187C42.1875 34.4395 41.2821 32.2537 39.6704 30.642C38.0588 29.0304 35.873 28.125 33.5938 28.125H15.625V45.3125ZM48.4375 61.7187C48.4272 59.0283 47.3539 56.451 45.4514 54.5486C43.549 52.6461 40.9717 51.5728 38.2812 51.5625H15.625V71.875H38.2812C40.9717 71.8647 43.549 70.7914 45.4514 68.8889C47.3539 66.9865 48.4272 64.4092 48.4375 61.7187Z" fill="black"/>
</svg>
