<svg width="100" height="100" viewBox="0 0 100 100" fill="none" xmlns="http://www.w3.org/2000/svg">
<path d="M50 31.25C46.2916 31.25 42.6665 32.3497 39.5831 34.4099C36.4996 36.4702 34.0964 39.3986 32.6773 42.8247C31.2581 46.2508 30.8868 50.0208 31.6103 53.6579C32.3338 57.2951 34.1195 60.636 36.7417 63.2583C39.364 65.8805 42.7049 67.6663 46.3421 68.3897C49.9792 69.1132 53.7492 68.7419 57.1753 67.3227C60.6014 65.9036 63.5298 63.5004 65.5901 60.4169C67.6503 57.3335 68.75 53.7084 68.75 50C68.75 45.0272 66.7746 40.2581 63.2583 36.7417C59.7419 33.2254 54.9728 31.25 50 31.25ZM50 62.5C47.5277 62.5 45.111 61.7669 43.0554 60.3934C40.9998 59.0199 39.3976 57.0676 38.4515 54.7835C37.5054 52.4995 37.2579 49.9861 37.7402 47.5614C38.2225 45.1366 39.413 42.9093 41.1612 41.1612C42.9093 39.413 45.1366 38.2225 47.5614 37.7402C49.9861 37.2579 52.4995 37.5054 54.7835 38.4515C57.0676 39.3976 59.0199 40.9998 60.3934 43.0554C61.7669 45.111 62.5 47.5277 62.5 50C62.4897 53.312 61.1694 56.4855 58.8275 58.8275C56.4855 61.1694 53.312 62.4897 50 62.5ZM67.1875 10.9375H32.8125C27.0109 10.9375 21.4469 13.2422 17.3445 17.3445C13.2422 21.4469 10.9375 27.0109 10.9375 32.8125V67.1875C10.9375 72.9891 13.2422 78.5531 17.3445 82.6555C21.4469 86.7578 27.0109 89.0625 32.8125 89.0625H67.1875C72.9891 89.0625 78.5531 86.7578 82.6555 82.6555C86.7578 78.5531 89.0625 72.9891 89.0625 67.1875V32.8125C89.0625 27.0109 86.7578 21.4469 82.6555 17.3445C78.5531 13.2422 72.9891 10.9375 67.1875 10.9375V10.9375ZM82.8125 67.1875C82.8125 69.2394 82.4083 71.2712 81.6231 73.1669C80.8379 75.0626 79.687 76.7851 78.236 78.236C76.7851 79.687 75.0626 80.8379 73.1669 81.6231C71.2712 82.4083 69.2394 82.8125 67.1875 82.8125H32.8125C30.7606 82.8125 28.7288 82.4083 26.8331 81.6231C24.9374 80.8379 23.2149 79.687 21.764 78.236C20.313 76.7851 19.1621 75.0626 18.3769 73.1669C17.5917 71.2712 17.1875 69.2394 17.1875 67.1875V32.8125C17.1875 28.6685 18.8337 24.6942 21.764 21.764C24.6942 18.8337 28.6685 17.1875 32.8125 17.1875H67.1875C69.2394 17.1875 71.2712 17.5917 73.1669 18.3769C75.0626 19.1621 76.7851 20.313 78.236 21.764C79.687 23.2149 80.8379 24.9374 81.6231 26.8331C82.4083 28.7288 82.8125 30.7606 82.8125 32.8125V67.1875ZM75 29.6875C75 30.6146 74.7251 31.5209 74.21 32.2917C73.6949 33.0626 72.9629 33.6634 72.1063 34.0182C71.2498 34.373 70.3073 34.4658 69.398 34.2849C68.4887 34.1041 67.6535 33.6576 66.9979 33.0021C66.3424 32.3465 65.8959 31.5113 65.7151 30.602C65.5342 29.6927 65.627 28.7502 65.9818 27.8937C66.3366 27.0371 66.9374 26.3051 67.7083 25.79C68.4791 25.2749 69.3854 25 70.3125 25C71.5557 25 72.748 25.4939 73.6271 26.3729C74.5061 27.252 75 28.4443 75 29.6875Z" fill="#323232"/>
</svg>
