<svg width="100" height="100" viewBox="0 0 100 100" fill="none" xmlns="http://www.w3.org/2000/svg">
<path d="M16.6667 83.3332C14.375 83.3332 12.4139 82.5179 10.7833 80.8873C9.15 79.254 8.33333 77.2915 8.33333 74.9998V24.9998C8.33333 22.7082 9.15 20.7471 10.7833 19.1165C12.4139 17.4832 14.375 16.6665 16.6667 16.6665H83.3333C85.625 16.6665 87.5875 17.4832 89.2208 19.1165C90.8514 20.7471 91.6667 22.7082 91.6667 24.9998V74.9998C91.6667 77.2915 90.8514 79.254 89.2208 80.8873C87.5875 82.5179 85.625 83.3332 83.3333 83.3332H16.6667ZM83.3333 33.3332L52.1875 52.8123C51.8403 53.0207 51.475 53.1762 51.0917 53.279C50.7111 53.3846 50.3472 53.4373 50 53.4373C49.6528 53.4373 49.2889 53.3846 48.9083 53.279C48.525 53.1762 48.1597 53.0207 47.8125 52.8123L16.6667 33.3332V74.9998H83.3333V33.3332ZM50 45.8332L83.3333 24.9998H16.6667L50 45.8332ZM16.6667 33.3332V34.3748V28.229V28.3332V24.9998V28.3332V28.279V34.3748V33.3332V74.9998V33.3332Z" fill="#323232"/>
</svg>
